Coordinates
version=1
nRows=8
nColumns=63
inDegrees=yes

Units are S.I. units (second, meters, Newtons, ...)
If the header above contains a line with 'inDegrees', this indicates whether rotational values are in degrees (yes) or radians (no).

endheader
time	pelvis_tilt	pelvis_list	pelvis_rotation	pelvis_tx	pelvis_ty	pelvis_tz	hip_flexion_r	hip_adduction_r	hip_rotation_r	knee_angle_r	knee_angle_r_beta	ankle_angle_r	subtalar_angle_r	mtp_angle_r	hip_flexion_l	hip_adduction_l	hip_rotation_l	knee_angle_l	knee_angle_l_beta	ankle_angle_l	subtalar_angle_l	mtp_angle_l	L5_S1_Flex_Ext	L5_S1_Lat_Bending	L5_S1_axial_rotation	L4_L5_Flex_Ext	L4_L5_Lat_Bending	L4_L5_axial_rotation	L3_L4_Flex_Ext	L3_L4_Lat_Bending	L3_L4_axial_rotation	L2_L3_Flex_Ext	L2_L3_Lat_Bending	L2_L3_axial_rotation	L1_L2_Flex_Ext	L1_L2_Lat_Bending	L1_L2_axial_rotation	L1_T12_Flex_Ext	L1_T12_Lat_Bending	L1_T12_axial_rotation	Abs_r3	Abs_r2	Abs_r1	Abs_t1	Abs_t2	neck_flexion	neck_bending	neck_rotation	arm_flex_r	arm_add_r	arm_rot_r	elbow_flex_r	pro_sup_r	wrist_flex_r	wrist_dev_r	arm_flex_l	arm_add_l	arm_rot_l	elbow_flex_l	pro_sup_l	wrist_flex_l	wrist_dev_l
      9.70000000	      5.16809572	     -0.40481755	    176.87887011	      2.42070234	      0.88903778	      0.52241831	      9.44593435	      1.62914824	     -2.60814052	     15.93848435	      0.27817903	     19.50415953	    -14.64283906	      0.00000000	      8.86727075	     -0.45663070	     -3.90205547	     16.55148414	      0.28887789	     15.89924499	    -18.35814915	      0.00000000	      0.00217403	     -0.18221014	     -0.96043599	      0.00403739	     -0.24233949	     -1.02046324	      0.00357172	     -0.44302574	     -1.02046324	      0.00248470	     -0.44302574	     -0.84038149	      0.00201881	     -0.37156292	     -0.78035424	      0.00124224	     -0.28224351	     -0.72032699	      0.01552889	     -2.06119757	     -5.34165685	      0.00000000	      0.00000000	     -0.00000000	      0.00000000	      0.00000000	      0.22285930	    -10.73103279	     47.73131367	     19.64048412	     57.41867714	      0.00000000	      5.00000014	     -9.21340970	    -10.60965236	     24.00868913	     20.54931179	     54.99673825	      0.00000000	      5.00000014
      9.73333333	      5.23969269	     -0.43253729	    176.79644835	      2.42103855	      0.88894848	      0.52209029	     10.64597595	      1.20051417	     -4.41493294	     18.20957878	      0.31781711	     20.68898690	    -12.31447551	      0.00000000	      9.05928043	     -0.48101783	     -3.93677830	     16.75036088	      0.29234895	     15.89308315	    -18.20128067	      0.00000000	      0.00295900	     -0.19063962	     -0.91340468	      0.00549516	     -0.25355069	     -0.97049247	      0.00486134	     -0.46352116	     -0.97049247	      0.00338184	     -0.46352116	     -0.79922909	      0.00274773	     -0.38875231	     -0.74214130	      0.00169077	     -0.29530077	     -0.68505351	      0.02113584	     -2.15655347	     -5.08008279	      0.00000000	      0.00000000	     -0.00000000	      0.00000000	      0.00000000	      0.34739298	    -11.22021207	     49.01921982	     20.37556693	     56.62284116	      0.00000000	      5.00000014	     -9.17112537	    -10.64664350	     23.77027822	     20.59033682	     54.14469885	      0.00000000	      5.00000014
      9.76666667	      5.14369632	     -0.73571691	    177.01889637	      2.42157635	      0.88924709	      0.52274953	     11.30955884	     -0.06282104	     -9.21350375	     19.94864818	      0.34816959	     22.89295202	     -5.71846653	      0.00000000	      8.96311457	     -0.07044484	     -3.35147112	     16.59327338	      0.28960725	     15.64912440	    -18.31364054	      0.00000000	      0.00171546	     -0.21841782	     -0.91853029	      0.00318578	     -0.29049570	     -0.97593843	      0.00281833	     -0.53106108	     -0.97593843	      0.00196060	     -0.53106108	     -0.80371400	      0.00159298	     -0.44539761	     -0.74630586	      0.00098021	     -0.33832920	     -0.68889772	      0.01225336	     -2.47078603	     -5.10858990	      0.00000000	      0.00000000	     -0.00000000	      0.00000000	      0.00000000	      2.33537529	    -12.24256056	     61.61703742	     20.40332544	     59.18358318	      0.00000000	      5.00000014	     -8.81297240	    -10.99637179	     25.66526279	     20.56217283	     55.12211484	      0.00000000	      5.00000014
      9.80000000	      5.04933562	     -0.86903542	    177.11682462	      2.42224893	      0.88971700	      0.52320095	     11.27872361	     -0.21293618	     -9.30852938	     19.98044636	      0.34872458	     22.88506659	     -5.80505900	      0.00000000	      8.91718289	      0.06939253	     -3.22588325	     16.60283238	      0.28977409	     15.62051785	    -18.19807231	      0.00000000	     -0.00141005	     -0.21882980	     -0.86667613	     -0.00261860	     -0.29104363	     -0.92084339	     -0.00231657	     -0.53206276	     -0.92084339	     -0.00161154	     -0.53206276	     -0.75834161	     -0.00130937	     -0.44623772	     -0.70417435	     -0.00080570	     -0.33896735	     -0.65000710	     -0.01007183	     -2.47544641	     -4.82019263	      0.00000000	      0.00000000	     -0.00000000	      0.00000000	      0.00000000	      2.33923848	    -12.31471718	     61.65102340	     20.40978698	     59.18559386	      0.00000000	      5.00000014	     -8.52459870	    -10.97745587	     25.65579675	     20.61344877	     55.12621196	      0.00000000	      5.00000014
      9.83333333	      4.93507305	     -1.31372752	    177.08078149	      2.42280033	      0.89001493	      0.52344910	     11.05760244	     -0.58864389	     -9.13711413	     19.63701537	      0.34273057	     22.83149910	     -6.05855535	      0.00000000	      8.75153437	      0.51985775	     -2.99038411	     16.47817961	      0.28759849	     15.67432773	    -17.94538029	      0.00000000	      0.00055338	     -0.25986896	     -0.79297307	      0.00102768	     -0.34562572	     -0.84253389	      0.00090915	     -0.63184539	     -0.84253389	      0.00063246	     -0.63184539	     -0.69385144	      0.00051387	     -0.52992479	     -0.64429062	      0.00031620	     -0.40253702	     -0.59472981	      0.00395273	     -2.93968967	     -4.41027835	      0.00000000	      0.00000000	     -0.00000000	      0.00000000	      0.00000000	      2.27496540	    -12.26296082	     61.85382795	     20.52555460	     59.19093862	      0.00000000	      5.00000014	     -8.15597087	    -11.00656197	     25.80238174	     20.19522963	     55.20743231	      0.00000000	      5.00000014
      9.86666667	      4.83139828	     -1.49508949	    177.01725304	      2.42283885	      0.89021381	      0.52384161	     10.21016731	     -0.46690477	     -8.11115576	     18.03347288	      0.31474348	     22.35428194	     -7.02819007	      0.00000000	      8.45234931	      0.68915498	     -3.14129224	     16.17914270	      0.28237931	     15.63425901	    -17.58803379	      0.00000000	     -0.00073183	     -0.27287562	     -0.75507544	     -0.00135909	     -0.36292457	     -0.80226766	     -0.00120233	     -0.66346977	     -0.80226766	     -0.00083641	     -0.66346977	     -0.66069101	     -0.00067958	     -0.55644796	     -0.61349880	     -0.00041817	     -0.42268433	     -0.56630658	     -0.00522742	     -3.08682354	     -4.19950310	      0.00000000	      0.00000000	     -0.00000000	      0.00000000	      0.00000000	      2.27650452	    -12.20511709	     62.13422298	     20.38371783	     59.17515443	      0.00000000	      5.00000014	     -7.93533761	    -10.94453368	     26.23505395	     19.85479332	     55.39042422	      0.00000000	      5.00000014
      9.90000000	      4.85834029	     -1.23311142	    177.05496490	      2.42293367	      0.88998981	      0.52420666	      9.47043032	      0.74714429	     -2.85349292	     16.28163630	      0.28416816	     19.57671809	    -15.12803168	      0.00000000	      8.36036168	      0.35087970	     -3.22785796	     16.08483044	      0.28073325	     16.03271431	    -16.79469600	      0.00000000	     -0.00013594	     -0.24290683	     -0.77043063	     -0.00025246	     -0.32306608	     -0.81858254	     -0.00022334	     -0.59060366	     -0.81858254	     -0.00015537	     -0.59060366	     -0.67412680	     -0.00012624	     -0.49533561	     -0.62597488	     -0.00007768	     -0.37626268	     -0.57782297	     -0.00097104	     -2.74781063	     -4.28490401	      0.00000000	      0.00000000	     -0.00000000	      0.00000000	      0.00000000	      2.47351302	    -12.35694660	     63.33412129	     20.35370844	     58.92755437	      0.00000000	      5.00000014	     -7.66975585	    -10.97443327	     28.15640158	     19.58447581	     56.16070752	      0.00000000	      5.00000014
      9.93333333	      4.88128455	     -1.17720909	    176.81646398	      2.42275876	      0.88958801	      0.52451654	      8.85393600	      0.96792553	     -2.23820878	     15.00992033	      0.26197253	     19.20436828	    -15.53276356	      0.00000000	      8.19573462	      0.27136367	     -3.20779883	     15.90333155	      0.27756550	     16.16962990	    -16.64046427	      0.00000000	     -0.00112228	     -0.23942915	     -0.75305325	     -0.00208419	     -0.31844077	     -0.80011908	     -0.00184380	     -0.58214804	     -0.80011908	     -0.00128266	     -0.58214804	     -0.65892160	     -0.00104215	     -0.48824393	     -0.61185577	     -0.00064127	     -0.37087576	     -0.56478994	     -0.00801636	     -2.70847046	     -4.18825628	      0.00000000	      0.00000000	     -0.00000000	      0.00000000	      0.00000000	      2.50711951	    -12.43447254	     63.43955286	     20.41414062	     58.86233253	      0.00000000	      5.00000014	     -7.78663107	    -10.90592116	     28.25408125	     19.66683948	     56.20000018	      0.00000000	      5.00000014
